
<svg width="1040" height="530" viewBox="0 0 1040 530" fill="none" xmlns="http://www.w3.org/2000/svg">
<path d="M241.7 49.2C241.3 46.2 240.6 43.4 239.5 40.6C239.2 39.5 238.5 38.7 237.5 38.2C236.9 38 236.2 38 235.5 38.2L225.4 39.7C224.6 39.7 223.7 40.1 223.1 40.6C221.8 42 223.1 44.2 223 46.1C223 48.2 221.1 50 219 50.6C216.9 51 214.7 51 212.6 50.5L198.5 48.3C202.7 47 206.4 44.5 209.2 41.2C211.1 39 212 34.9 209.4 33.9C208.6 33.7 207.8 33.6 207 33.7C200.6 33.7 195.6 28.4 189.6 26.2C181.7 23.4 173 26 167.9 32.7L175.4 33.1C176.1 33.1 176.8 33.2 177.4 33.6C179 35 177 37.6 177.2 39.7C177.5 42.5 181.2 43 183.9 43.3C186.6 43.6 190.1 45.8 188.8 48.2C175 53 160.9 38.9 146.3 40.6C142.6 41 139.1 42.5 135.6 43.4C113.6 49 91 34.1 68.5 37.3C63.5 38.1 58.6 39.4 53.9 41.2C50.8 42.2 47.7 43.3 45.4 45.6C43.1 47.9 42.3 51.9 44.4 54.3C38.6 54.8 32.8 54.2 27.2 52.7C30.3 54.4 32.2 57.7 32.2 61.2C23.2 62.7 14.4 65.4 6 69.2C7.6 71.8 9.4 74.2 11.4 76.4L0 83.8C3.9 84.8 5.9 90 3.6 93.3C7.6 91.5 10.1 86.9 14.4 86C17.2 85.4 20.1 86.5 22.7 87.6C25.3 88.7 28.3 89.7 31.1 88.9C33.9 88.1 35.9 84.5 34.1 82.2C45.9 78.8 58.1 76.9 70.4 76.5C71.3 76.4 72.3 76.6 73.1 77C74.7 78.1 74.3 80.5 74.2 82.4C74.1 84.3 75.6 86.9 77.4 86C75.4 87.8 77.1 91.1 79.1 93C81.1 94.9 83.4 97.4 82.2 99.9C81.9 100.5 81.4 101 81.1 101.7C80.2 103.6 81.6 105.8 83.3 107C85 108.2 87 109.1 88.2 110.9C89.4 112.7 88.8 115.7 86.8 115.9L80.9 108.4C78.9 110.5 77.5 113.1 76.9 115.9C83.1 121 84.1 131.4 78.9 137.5C76.2 140.6 72.4 142.5 69.1 145C65.8 147.5 62.7 150.9 62.7 155C62.7 162.1 62.1 168.7 64.8 175.3C69.7 187.5 75.4 199.3 81.8 210.7C83.5 213.7 85.7 217 89.1 217.5C84.8 207 80.9 196.4 77.5 185.6C79.7 185.6 82.3 185.8 83.7 187.6C84.8 189.1 84.6 191.2 84.9 193C85.3 194.8 86 196.5 87 198L107.5 234.6C109.2 237.6 111.2 240.9 114.4 242.1C116.5 242.9 118.9 242.7 120.8 243.9C122.3 244.8 123.3 246.4 124.8 247.2C129.1 249.6 135.1 245 139.2 247.9C140.4 248.7 141.1 250 142.2 250.9C145.9 254.1 152.1 252 156.4 254.4C159.2 256 160.6 259.1 162.1 261.9C165.8 269 171.8 275.9 179.8 276.4C182.3 276.6 184.9 276.1 187.3 276.7C189.7 277.3 192.1 279.4 191.8 281.9C191.1 286.1 193.2 290.8 192.7 295.1C191.7 302.9 180.7 306.3 179.7 314C179.5 315.7 179.8 317.5 179.4 319.1C178.9 321.1 177.4 322.8 176.8 324.8C175.8 328.6 178.5 332.5 181.5 335.1C184.5 337.7 188.1 339.9 189.8 343.5C191.5 347.3 190.7 351.8 191.3 356C192.5 365.1 200.4 371.8 208.5 376.2C211 377.5 213.6 378.8 215.2 381.1C217.3 384.1 217.1 388.1 217.8 391.6C219.5 400.4 226.9 407.6 227.1 416.6C227.2 423 223.7 428.7 221.6 434.7C217.6 446.3 218.9 459.1 225.1 469.7C226.7 472.4 228.6 474.9 229.7 477.8C231.7 483 231 488.8 232.9 494C235.3 500.9 242 506.6 241.4 513.9C244.4 520.2 251.1 523.3 257.9 525.2L270 528.6C272.3 529.2 274.7 529.9 277.1 529.4C279.5 528.9 281.7 527 281.6 524.6C275.7 523.3 269.6 521.8 264.7 518.2C259.8 514.6 256.5 508.2 258.3 502.4C259.2 499.7 261 496.6 259.2 494.4C258.2 493.1 256.4 492.8 255.3 491.6C253.6 489.8 254.2 486.8 255.4 484.6C256.6 482.4 258.5 480.5 259 478C259.5 475.2 258.2 472.3 255.8 470.9C258 470.1 260.1 468.8 261.8 467.1C263.4 465.3 264.1 462.5 262.9 460.5C266.6 461 270.9 461.2 273.3 458.4C275.2 456.2 275.1 452.8 274.3 450C273.5 447.2 272.3 444.4 272.2 441.4C280.7 441.8 289.1 441.5 297.6 440.5C296.4 436.4 293.6 432.9 289.9 430.8C293.7 430.2 297.2 425.6 298.4 421.9C299.6 418.2 299.3 414.2 298.6 410.4C298.3 409.4 298.3 408.4 298.5 407.4C298.9 406 300.3 405.2 301.5 404.5L320.4 393.6C321.5 393 322.6 392.3 323.4 391.4C325.4 389.1 325.1 385.6 324.1 382.7C323.1 379.8 321.5 377.1 321.1 374.1C319.9 365 329.6 358.5 332.9 350C334.2 346.7 334.4 343 334.7 339.4C335 335.6 335 331.1 332 328.6C329.2 326.2 324.7 326.8 321.8 324.5C319.1 322.5 318.1 318.5 315.2 316.9C312.5 315.4 309.1 316.4 306.1 315.7C300.8 314.5 297.5 308.4 292.1 307.8C289.1 307.5 285.6 309 283.1 307.2C280.9 305.6 280.8 302.5 280.4 299.8C278.9 291.3 272.3 284.7 263.8 283.2C260.7 282.7 257.3 282.9 254.6 281.2C251.9 279.5 250.7 276.2 248.5 273.8C245.1 269.9 239.7 268.5 234.7 267.3L214.2 262.5C210.6 261.6 205.9 261.2 203.9 264.4C203.3 265.6 202.9 266.9 202.7 268.2C201.2 273.1 196.7 276.5 191.6 276.6C189.9 273.7 187.1 271.5 183.8 270.6C181.7 270 179.5 270 177.5 269.1C173.1 267 171.3 261.7 173.4 257.3C173.5 257.2 173.5 257 173.6 256.9C176 252.6 175.3 247.2 171.7 243.7C168.2 240.6 163.2 239.8 158.5 240.1C157.3 237.4 159.3 234.4 161.5 232.5C163.7 230.6 166.4 228.6 166.9 225.7C167.7 221.1 161.8 217.7 157.4 219C153 220.3 150.2 224.7 148.3 228.9C147.2 231.3 146.3 233.9 144.6 235.9C142.9 237.9 140.2 239.4 137.6 238.8C134 237.9 132.6 233.5 131.8 229.9C130.7 225 129.6 220 129.9 215C130.2 210 131.8 204.8 135.5 201.4C141.5 195.8 150.8 196.4 159 197.3C157.1 195.1 157.5 191.5 159.6 189.4C161.8 187.4 164.9 186.7 167.7 187.4C170.2 187.9 172.4 189.2 174 191.2C176.3 194 177 197.8 178.7 201.1C180.4 204.4 184.4 207 187.6 205.3C190.4 203.8 190.8 199.9 190.1 196.9C189.4 193.9 187.9 190.8 188.2 187.7C188.7 181.7 194.9 178.1 200.4 175.6C205.9 173.1 212.2 169.8 213.1 163.8C213.1 162.6 213.4 161.5 213.8 160.4C214.4 159.4 215.3 158.6 216.3 158.1C232.3 147.5 248.7 136.8 267 131C268 130.7 268.1 131 269 130.8C270.4 130 269.5 127.8 268.2 127C266.9 126.2 265.2 125.5 264.8 123.9C264.6 122.8 265.2 121.7 265.4 120.5C265.8 117.7 262.5 115.1 259.9 116.2C258.4 114.2 261.3 112 263.7 111.3C270.8 109.4 278 108.2 285.4 107.8C286.2 107.7 287.1 107.8 287.9 108.2C289.1 109.1 289 111 288.1 112.2C287.2 113.4 285.9 114.2 284.8 115.2C282.4 117.6 281.5 121.1 282.5 124.3C286.3 126.2 290.5 128.2 294.7 127.6C298.9 127 302.7 122.2 300.7 118.4C298.8 114.9 293.3 114.1 292.3 110.2C291.2 105.7 297.6 101.6 296.2 97.2C295.6 95.3 293.6 94.1 292.1 92.7C288.5 89.2 287.4 83.8 289.4 79.1C284.5 80 279.4 78.4 275.9 74.9C272.7 71.6 270.1 66.5 265.5 66.6C261.3 66.7 257.7 71.7 253.7 70.2C252.7 69.8 251.7 69.1 250.8 69.5C250.2 69.9 249.8 70.6 249.7 71.3C248.7 76.1 250.4 81.5 247.8 85.7C245 90.2 238.4 90.8 234.9 94.9C233 97.1 232.3 100.1 230.6 102.4C228.9 104.7 225.2 106.2 223.2 104.2C225.3 99.9 224.1 94.7 220.4 91.8C218.5 90.6 216.4 89.5 214.3 88.8C211.9 87.8 209.6 86.5 207.4 85C206.3 84.4 205.5 83.4 204.9 82.3C204.4 80.9 204.5 79.4 205.1 78C207.2 71.9 212.6 67.5 219 66.5C221.7 66.1 224.9 66.3 226.8 64.2C227.8 63.1 228.3 61.4 229.7 61C230.6 60.8 231.5 60.9 232.3 61.3L242.5 64.9C243.6 65.4 244.9 65.6 246.1 65.5C247.4 65.3 248.3 64.2 248.2 62.9C247.9 61.2 245.3 60.4 245.5 58.7C245.6 58.1 245.9 57.6 246.4 57.3C253.9 49.3 264.5 45.1 275.5 45.8C276.8 47.9 274.7 50.4 273 52.3C271.3 54.2 269.9 57.4 272 58.7C272.8 59.1 273.8 59.3 274.7 59.3C277.2 59.6 279.7 60.4 282 61.5C285.5 63 289 64.7 292.4 66.6C292.1 64.4 291.8 62 292.7 59.9C293.6 57.8 296 56.2 298.1 57C300.1 57.8 301.2 60.5 303.3 60.7C306.2 61 307.3 56.8 306.1 54.1C304.9 51.4 302.5 49.2 302.3 46.3C302.2 44.3 302.9 41.9 301.3 40.7C300.7 40.3 300.1 40.1 299.5 40.1L260.4 32.9C258.1 32.5 254.7 32.8 254.6 35.2C254.5 36.5 255.7 37.8 255.2 39C254.6 40.3 252.8 40.2 251.5 40.6C249.4 41.3 248.4 43.8 248.6 45.9C249 48.1 249.8 50.1 251 51.9C248.1 50.5 244.3 50.3 241.7 49.2Z" fill="#a75094"/>
<path d="M210.5 16C205.5 14.3 199.9 16 196.6 20.2C196 21 195.4 22.2 196 23.1C196.8 24.4 198.7 23.9 200.2 23.4C202.3 22.6 204.7 22.6 206.8 23.2C208.2 23.7 209.4 24.5 210.7 24.9C212.1 25.5 213.6 25.2 214.8 24.3C215.7 23.3 215.8 21.9 215.8 20.5C215.9 19.6 215.6 18.7 215 18C214.5 17.7 213.8 17.5 213.2 17.5C211.8 17.2 210.5 16.5 209.6 15.4" fill="#a75094"/>
<path d="M224.6 12.1C222.8 12 221.3 13.4 221.2 15.1C221.2 15.6 221.3 16.1 221.5 16.6C223.2 17.1 225 17.2 226.7 16.9C228.5 16.6 229.9 15.3 230.3 13.6C228.3 14 226.1 13.6 224.4 12.5" fill="#a75094"/>
<path d="M271.9 5.60001C267.3 6.60001 262.8 8.10001 258.6 10.1C262.7 11.7 265.3 15.8 265 20.2C264.8 21 264.8 21.9 265.1 22.7C265.6 23.9 267 24.3 268.3 24.6C270.5 25.3 272.9 25.6 275.2 25.5C277.6 25.4 279.7 24.1 280.9 22C281.2 21 281.6 20.1 282.1 19.2C285.1 14.6 294 20.2 297.2 15.7C298.3 14.1 298.2 11.8 299.7 10.6C300.5 10.1 301.3 9.70001 302.3 9.60001C308.8 8.30001 315.3 7.40001 321.8 6.80001C324.9 6.50001 329 5.40001 329 2.30001C317.3 8.10623e-06 305.1 1.6 294.5 6.9C290.6 8.8 285.6 12.9 281.8 10.3C280.4 9.30001 280.5 6.8 278.6 5.7C276.6 4.7 274 5.10001 271.9 5.60001Z" fill="#a75094"/>
<path d="M310.2 12.7L315.7 13.8C311.8 13.6 308.4 16.7 308.3 20.6C308.3 20.9 308.3 21.2 308.3 21.5C313.4 23.2 319.1 21.5 324.5 21.8C329.9 22.1 336.2 25.9 335.3 31.3C335 32.9 334.1 34.5 334.6 36.1C334.9 37.2 335.9 38 336.5 39C337.6 41.1 336.7 43.8 335.3 45.7C333.9 47.6 331.9 49.1 330.7 51.2C327.6 56.3 329.3 62.8 331.2 68.5C331.7 70.6 332.7 72.6 334.1 74.3C336.9 77.2 341.4 77.5 345.4 77.6C348.3 77.6 351.7 77.5 353.6 75.2C356 72.2 354.3 67.6 355.9 64.1C357.4 60.9 361.1 59.6 364.4 58.6C370.5 56.8 376.8 55.3 382.6 52.7C389.8 49.4 396.6 44.2 404.5 43.8C406.7 43.7 409 43.9 411.2 43.3C413.4 42.7 415.4 40.8 415.2 38.6C415.1 36.7 413.5 35.3 412.2 33.9C410.9 32.5 410 30.3 411.1 28.8L431.9 24.9C430.4 20.9 429.3 15.6 432.7 13C433.9 12.1 435.6 11.7 436.6 10.5C438.4 8.59999 437.5 5.2 435.4 3.6C433.3 2 430.6 1.6 428 1.3C418.9 0.499996 409.7 0.999993 400.6 1.49999C382.7 2.49999 364.9 3.49999 347 4.39999C343.4 4.59999 339.3 4.29999 336 5.49999C333.2 6.49999 331.2 8.4 328 9.1C322 10.3 315.6 9.39999 310.2 12.7Z" fill="#a75094"/>
<path d="M408.7 56.2C408.1 56.1 407.6 56.2 407.1 56.6C406.8 56.9 406.6 57.4 406.6 57.8C406.2 59.8 406.7 61.9 407.8 63.6C409 65.3 411 66.3 413 66.1C415.5 65.8 417.3 63.7 419.6 62.6C423.1 61 438 58.5 427.7 53C424.1 51.1 421.9 52.8 419.1 54C415.8 55.7 412.3 56.4 408.7 56.2Z" fill="#a75094"/>
<path d="M499 9.60001C497.8 10.1 496.8 11 496.1 12.1C495.5 13.3 495.9 14.8 497 15.4C497.4 15.6 497.9 15.6 498.4 15.6L503.3 15.7C505.4 15.8 508 16.2 508.5 18.2C508.9 19.7 508 21.6 509.1 22.7C509.6 23.1 510.2 23.3 510.8 23.3C512.4 23.7 514.1 23.8 515.7 23.5C519.3 22.5 517.4 20.4 518.5 18.4C520.2 15.4 519.9 17.2 522.9 15.5C525.1 14.2 528 12 526.2 8.8C523 3.4 503.7 7.20001 499 9.60001Z" fill="#a75094"/>
<path d="M595.5 6.8L592.7 7.19999C586.3 8.09999 579.9 8.9 573.7 10.8C576.4 11.9 579.2 12.5 582 12.8C583.6 12.9 585.1 13.1 586.7 13.5C589.4 14.3 592.2 16.4 594.8 15.3C596.4 14.6 597 12.9 598.3 12C599.2 11.4 602.8 10.4 603.2 9.69999C606.3 4.79999 598 6.5 595.5 6.8Z" fill="#a75094"/>
<path d="M608 19.7C604.2 21.8 600.7 24.4 597.5 27.4C596.2 28.7 594.8 30.2 594.9 32C595.1 34.4 597.6 35.8 599.9 36.8L609 40.6C610.1 39 609.1 36.9 608 35.4C606.9 33.9 605.5 32.1 606 30.3C606.6 28.2 609.1 27.5 611.3 27.1C614.8 26.5 624.2 26.6 623.1 20.9C621.7 14.3 611.5 17.7 608 19.7Z" fill="#a75094"/>
<path d="M606.2 394.8C605.3 397.3 605.3 400.3 606.7 402.4C608.4 404.9 611.7 405.8 614.6 405.1C617.5 404.3 620.1 402.7 622 400.4C623.7 398.5 625.2 396.3 626.2 393.9C627.7 390.2 628.8 386.3 629.3 382.4L632.1 367.6C632.7 364.3 632.7 354.1 626.6 357.5C624.9 358.4 621.1 365.5 619.4 367.6C616.3 371.2 615.8 374.8 614.2 379.2C612.2 384.7 608.1 389.3 606.2 394.8Z" fill="#a75094"/>
<path d="M927.3 470.6C925.3 469.8 923.4 468.9 921.5 467.8C919.6 472.9 918.6 478.3 918.6 483.8L932.2 476.1C934.2 474.9 936.6 473.3 936.5 471C936.5 470.4 936.2 469.8 935.7 469.5C935.4 469.4 935.1 469.3 934.7 469.4C932.7 469.6 930.8 470.6 928.9 471.3C927 472 924.8 472.4 923 471.3" fill="#a75094"/>
<path d="M999.2 475.2C997.7 475.6 996.2 476.1 994.8 476.8C991.7 478.4 989.5 481.4 986.7 483.5C984 485.5 980.8 486.6 977.6 487.7C976.7 488.5 977.1 490.2 978.1 490.9C979.2 491.5 980.4 491.8 981.7 491.7C985 491.8 988.5 491.8 991.4 490.2C993 489.1 994.6 487.9 996 486.6C999.4 483.8 1003.4 481.9 1007.5 480.1C1009 479.5 1010.3 478.7 1011.5 477.7C1014 475.2 1014.2 471.4 1010.6 470.5C1007.6 469.8 1002 474.3 999.2 475.2Z" fill="#a75094"/>
<path d="M1030.9 454.4C1031.2 450.9 1030 447.5 1027.4 445.1C1027.4 448.5 1027.3 452.2 1025.3 455C1023.9 457 1021.8 458.4 1020.3 460.3C1018.8 462.2 1018.1 465.3 1019.9 467C1021 467.9 1022.4 468.3 1023.8 468.4C1027.3 468.8 1031.4 469 1033.8 466.5C1035.1 465.1 1035.8 463.1 1037.4 462C1038 461.7 1038.6 461.4 1039 460.9C1039.7 459.8 1038.6 458.4 1037.4 458C1036.2 457.6 1034.9 457.8 1033.6 457.4C1032.3 457 1031.3 455.7 1031.9 454.6" fill="#a75094"/>
<path d="M974.5 328.8C972.7 329.2 970.7 329.4 968.9 329.1C965.8 328.5 963.3 326.2 960.8 324.2C954.8 319.6 947.5 317.1 940 316.9C933.1 316.8 926.2 318.6 919.5 317.3C919.9 319.7 922 321.6 924.3 322.7C926.6 323.8 929 324.3 931.3 325.4C934.9 327.1 937.8 330.1 939.3 333.8C940 335.5 940.5 337.3 941.6 338.8C943.8 341.8 948.1 342.5 951.8 342.2C956.7 341.9 961.8 340.5 966.3 342.3C969.8 343.7 972.3 346.7 975.2 349.1C978.1 351.5 982.2 353.2 985.5 351.5C978.4 349.2 973.6 342.5 973.7 335.1C977 335.4 986.4 335.3 985.9 329.7C985.4 325.1 977.3 328.3 974.5 328.8Z" fill="#a75094"/>
<path d="M931.7 367.1C932.3 363.9 935.5 361.1 934.5 358C933.8 355.9 931.3 354.8 929.1 354.8C926.9 354.8 924.7 355.4 922.4 355.5C920.9 355.4 919.5 355.4 918 355.6C913.6 356.3 910.8 361 906.6 362.6C904.1 363.6 901.2 363.4 898.5 364.1C892.5 365.7 888.7 371.4 884.5 375.9C877.7 383.3 868.9 388.4 859.1 390.7C855.7 391.5 852 392 849.3 394.2C845.7 397.1 844.8 402.2 844 406.8C841.8 419.4 838.4 431.8 833.9 443.9L848.2 445.7C850.9 446 853.7 446.4 856.3 445.6C858.2 444.9 860 443.9 861.7 442.7C868.1 438.8 875.2 436.2 882.6 435.2C886.3 434.7 890.3 434.6 893.8 436C897.3 437.4 900.3 440.5 900.6 444.3C903.7 443.3 907.1 444.2 909.4 446.4C911.6 448.7 913.1 451.6 913.6 454.8C914 456.8 914.4 459.1 916.2 459.9C917.7 460.6 919.4 459.8 921 459.7C926.5 459.3 931 465.7 936.4 464.6C942.2 463.4 943.6 454.8 949.2 453C952.4 452 957 453.2 958.5 450.2C959.9 447.5 957.1 444.5 957.4 441.5C957.7 437.8 962.1 436.3 965.4 434.7C976.9 429.3 982.3 413.9 976.8 402.5C973.5 395.7 967 390.4 965.8 383C964.9 377.3 967.1 370.6 963.5 366.1C961.6 363.8 958.5 362.6 957.4 359.8C956.7 358.1 957 356.1 956.6 354.3C956.2 352.5 954.6 350.6 952.9 351.1C947.7 352.5 946 368.5 943.3 372.4C939.1 378.3 930.4 374.4 931.7 367.1Z" fill="#a75094"/>
<path d="M835.6 334.8C833.8 334.3 831.9 333.8 830.2 334.5C828.5 335.2 827.5 337.7 828.9 339C839.6 338.6 850.3 338.2 860.9 339.6C873.1 341.3 885.2 345.4 897.5 344.2C890.5 342.1 883.4 340.5 876.2 339.3L864.2 337C861 336.3 857.7 335.8 854.5 335.5C847.5 334.9 842.4 336.7 835.6 334.8Z" fill="#a75094"/>
<path d="M846.3 297.6C845.4 297.5 844.3 297.5 843.9 298.2C843.5 298.9 844 299.9 843.7 300.7C843.4 301.8 841.9 302.1 840.8 301.9C839.7 301.7 838.4 301.4 837.4 301.9C836.3 302.6 835.9 304 836.3 305.2C836.7 306.4 837.4 307.5 838.3 308.4C839.8 310.3 841.5 312 843.4 313.5C847.1 316.2 852.1 317.5 854.4 321.5C854.7 322.3 855.2 322.9 855.9 323.5C857 324.2 858.5 323.7 859.7 323.1L863.9 321.2C864.7 320.9 865.3 320.5 865.9 319.9C866.9 318.6 866.3 316.8 865.5 315.4C864.7 314 863.7 312.6 863.8 310.9C864.1 308 867.8 306.9 869.3 304.5C870.8 302 869.8 298.9 870 296C870.2 292.6 872.3 288.2 868.9 285.7C866 283.5 863.2 285.5 861.1 287.9C856.5 292.9 854.4 298.3 846.3 297.6Z" fill="#a75094"/>
<path d="M871.8 247C873.2 249.7 876.2 251.4 877.8 254C879.5 256.9 879.3 260.6 881.1 263.4C883 266.3 886.8 267.8 887.8 271.1C889 274.7 886.3 279 888.4 282.1C890 284.1 892.9 284.5 894.9 283C895 282.9 895.1 282.8 895.2 282.7C897 280.7 896.9 277.6 895 275.7C893.8 274.6 892 274.1 891 272.8C890.5 272 890.1 271.2 890 270.3C889.4 267.7 889.5 264.9 890.3 262.3C890.6 261.6 890.6 260.9 890.5 260.2C890 258.9 888.2 258.8 886.9 258.1C884 256.7 884.1 252.6 884.6 249.4C884.3 251.5 876.7 247.9 875.9 246.7C874.3 244.3 875.2 239.7 874.9 237C871.3 238.8 870 243.6 871.8 247Z" fill="#a75094"/>
<path d="M795.3 289.2C793.9 287.6 791.8 286 789.9 286.9C788.5 287.6 788.1 289.6 788.6 291.1C789.3 292.6 790.3 293.8 791.7 294.7C795.6 297.9 799.8 300.8 803.2 304.6C809.3 311.3 812.5 320.4 819.2 326.6C820.5 328 822.3 329 824.2 329.3C826.1 329.5 828.3 328.2 828.5 326.3C828.7 324.7 827.6 323.3 826.5 322.1C823.9 319.3 821.1 316.7 818.7 313.8C817.6 312.7 816.9 311.2 816.7 309.6C816.7 308 818.1 306.4 819.7 306.8C817.8 306.3 816.5 303.2 813.7 302.6C811.4 302.1 810.9 303.5 808.1 302.4C803 300.2 799 293.2 795.3 289.2Z" fill="#a75094"/>
<path d="M917.1 136.5C915.6 136.1 914.2 135.5 912.7 134.9C908.9 133.7 903.8 136.6 904.3 140.6C904.6 143.2 907.1 145 908.5 147.3C910.5 150.7 910 155 908.9 158.8C908.6 160 908.1 161.1 907.4 162.1C906.4 163.1 905.3 164 904 164.6C898.8 167.5 894.2 171.4 890.5 176.1C890.1 176.5 889.8 177.1 889.7 177.6C889.5 178.9 890.9 179.9 891.6 181C893.3 183.5 892.1 186.8 892.2 189.9C892.1 190.8 892.5 191.6 893.3 192.1C894.3 192.6 895.5 191.7 896.1 190.7C897.9 187.4 896.6 182 900 180.4C900.7 180.1 901.4 180 901.9 179.4C902.6 178.5 901.9 177.1 902.3 176.1C902.8 174.5 905.1 174.4 906.8 174.5C909.8 174.6 912.7 174.2 915.5 173.3C916.6 173 917.6 172.5 918.4 171.6C919.4 170.3 919.3 168.5 919.1 166.8C918.1 158.6 915.5 150.7 911.5 143.6C914.5 144 917.8 144.3 920.5 142.7C922 141.8 923.7 139.2 923 137.4C921.7 134.6 919.6 137 917.1 136.5Z" fill="#a75094"/>
<path d="M528.2 181.4C528.6 183.3 528.9 185.4 528.3 187.3C527.7 189.2 525.7 190.7 523.8 190.2C522.3 189.8 521.5 188.3 520.4 187.1C514.6 180.8 501.5 184.5 497.9 176.7C496.4 173.5 497.4 169.7 496.4 166.4C495.1 162.4 491.3 159.8 487.1 160.1C485.3 160.4 483.5 160.9 481.8 161.7C470.5 166.2 458.5 169.2 446.4 170.6C444.1 170.7 441.8 171.2 439.6 171.8C434.6 173.6 431.2 178.2 428.8 183C426.4 187.8 424.6 192.8 421.3 197C417.9 201.4 413.1 204.5 408.6 207.8C406.9 208.9 405.4 210.4 404.4 212.2C403.4 214.2 403.5 216.5 403.6 218.7L404.5 245.5C404.6 249 404.8 252.5 406.3 255.6C408.2 259.5 412 262 414.7 265.4C417.4 268.9 418.8 273.2 418.7 277.7C418.6 279.5 418.5 281.6 419.9 282.7C420.7 283.2 421.7 283.5 422.7 283.5L459 286.5C465.4 287 472.5 287.9 476.6 292.7C478.6 295 480.1 298.3 483.2 298.5C484.5 298.6 485.8 298.1 487 298C490.3 297.7 493.1 300.2 494.9 302.9C497.6 307.1 498.9 312 498.4 317C498.1 320.1 497.1 323.1 496.9 326.3C496.1 338.2 506.2 348.5 506.4 360.4C506.5 367.4 503.2 373.9 500 380.1C505.2 388 500.9 398.6 503 407.8C505 416.6 512.3 423.5 514.1 432.3C514.9 436.3 515 441.3 518.5 443.4C520.1 444.2 521.8 444.5 523.5 444.4C534 444.5 544.3 442.2 553.7 437.5C558.1 435.3 562.7 432.1 563.4 427.2C564 423.3 562 418.9 564.1 415.5C566.5 411.5 572.6 411.8 576.1 408.7C581.8 403.7 577.4 394.1 579.7 386.9C581.8 380.4 588.9 377 592.4 371.2C593.8 368.7 594.8 366 595.4 363.2C597 356.5 598 349.7 598.4 342.8C598.5 338.6 598.8 334.4 599.3 330.3C603.1 306.7 626.5 290.8 634.1 268.1C634.8 265.9 635.2 263 633.2 261.8C632.1 261.3 630.8 261.1 629.5 261.4L612.8 263.5C610.7 263.8 608.5 264 606.6 263.1C604.7 262.2 603.3 259.8 604.3 258C607.1 252.9 601.3 246.3 598.7 241.1C591.7 226.9 583.4 213.4 573.8 200.7C573.2 200.1 572.8 199.2 572.7 198.3L577.5 198.5C575.9 192.7 573.2 186.4 567.7 184.3C564.5 183.1 561.1 183.5 557.7 183.7C548.1 184.3 537.7 182.9 528.2 181.4Z" fill="#a75094"/>
<path d="M557.7 51.7C560.2 54.4 563 57.2 566.7 57.7C573.1 58.5 577.8 51.9 580.7 46.1C580.9 49.2 583.6 51.5 586.6 51.4C588.2 51.1 589.7 50.5 591.1 49.7C603.9 42.7 618.1 39 632.7 39C632.4 36.7 633.9 34.6 636.1 34.1C639.1 33.5 641.7 36.1 643.1 38.7C644.5 41.3 645.4 44.4 647.7 46.4C650 48.4 654.4 48.3 655.2 45.4C656.1 42.6 653.2 40.3 650.8 38.7C648.4 37.1 645.9 34.1 647.5 31.7C659.7 29 672 26.3 684.5 25.7C686.6 25.8 688.7 25.4 690.7 24.6C692.6 23.7 694.1 21.5 693.6 19.5C688 20.8 682.2 18.6 678.9 13.9C696.2 12.5 714.7 11.2 730.1 19.4C731.9 23.4 722.5 26.7 725.1 30.2C725.9 31.3 727.5 31.5 728.9 31.5C739.6 31.7 750.3 31.9 760.9 30.3C764.8 29.7 768.7 28.9 772.5 29.4C779 30.2 784.5 34.5 790.8 35.9C793.4 36.5 796.3 36.5 798.5 35C800.7 33.5 801.6 30.1 799.8 28.1C805.8 22.2 815.7 23.7 823.6 26.5C831.5 29.3 839 33.8 847.3 34.5C853.3 34.9 859.4 33.3 865.3 34.4C869 35 872.5 36.7 876.1 37.7C883 39.6 890.2 39.2 897.4 39.3C915.6 39.5 933.6 43.1 950.5 49.9C952.7 50.6 954.7 51.8 956.4 53.4C958 55.1 958.8 57.7 957.7 59.8L940.2 57.2C941.8 60.4 946.1 61 949.6 62.1C953.1 63.2 956.6 67 954.6 70C950.9 68.8 947.5 72.6 945.6 76C943.7 79.4 941.4 83.6 937.5 83.8C934 84 929.7 81 927.4 83.7C930.6 87.7 933.3 92 935.5 96.6C937.8 101.3 939.4 107.3 936.3 111.5C935.8 112.3 935.1 112.8 934.2 113.1C931.7 113.7 930.1 110.7 928.3 108.8C926 106.5 922.6 105.8 919.6 104.7C916.6 103.6 913.3 101.4 913.1 98.2C913 96.2 914 94.3 914.8 92.4C916.1 89.3 916.7 85.9 916.5 82.5C916.3 79.8 915.6 76.9 913.6 75C911.6 73.1 908.2 72.5 906.1 74.2C905.1 75 904.3 76.3 903 76.4C900.7 76.5 899 72.5 897.2 73.9C897.4 75.3 897.1 76.8 896.4 78C891 82.7 882.7 80.7 875.7 82.4C872.4 83.4 869.2 84.7 866.2 86.5C865.1 87 864.2 87.8 863.5 88.8C862.6 90.5 863.6 92.7 865.1 93.8C866.7 94.8 868.6 95.4 870.5 95.6C879 97.2 887.7 99.7 894.4 105.2C901.1 110.7 905.5 119.7 903.4 128.1L886.6 112C887.2 118.7 887.6 125.5 887.7 132.3C887.8 133.6 887.6 135 887.2 136.2C886 138.8 882.8 139.7 879.9 140.3C876.8 140.9 874.8 143.9 875.4 147C875.4 147.2 875.5 147.4 875.6 147.6C876.6 150.9 879.1 153.5 881.4 156C883.7 158.5 886 161.5 886.3 164.9C886.6 168.3 884 172.2 880.6 172C878 171.8 876.1 169.5 874.9 167.1C873.7 164.7 873.1 162.1 871.5 160.1C866.4 154 855.1 156.6 850.6 150.1C848.3 152.8 847.5 156.4 848.5 159.8C850.6 158.5 853.5 159.7 855.1 161.6C856.7 163.5 857.4 166 858.7 168.1C860.4 171 863 173.6 863.3 176.9C863.2 178.2 863.3 179.4 863.4 180.7C863.8 182.7 865.5 184.2 866.7 185.9C869.5 189.8 869.3 195.3 867.5 199.7C865.7 204.1 862.5 207.9 859.3 211.5C853.8 217.8 848.1 224.1 841.5 229.4C839.6 230.9 837.6 232.4 836.5 234.5C835.4 236.6 835.3 239.5 837.1 241.1C835.8 241.2 833.5 241.8 832.2 241.9C831.7 236.8 831.7 231.6 831.9 226.4C826.8 224 821.4 230.5 822 236.1C822.6 241.7 826.7 246.2 829.6 251C831.7 254.5 833.3 258.6 832.6 262.7C831.9 266.8 828.3 270.5 824.2 270.1C817.7 269.5 815 260.2 808.5 259.1C807.9 259 807.3 259 806.8 259.3C805.8 259.8 805.7 261.1 805.6 262.2C805.3 267.5 805.1 273.1 807.2 278C810.3 285.2 818.1 291.3 816.5 298.9C807.6 294.8 802.9 284.8 800.8 275.1C798.7 265.4 798.3 255.4 794.6 246.3C791.7 250 785.7 246.9 783.1 243.1C780.6 239.4 779.1 235.2 776.7 231.5C774.3 227.8 770.6 224.5 766.2 224.3C761.6 224.1 757.6 227.3 754 230.3C751.1 232.8 748.1 235.3 746.4 238.7C743.9 243.7 744.6 249.5 744.5 255C744.4 261 743.1 267.3 739 271.7C734.9 276.1 727.4 277.6 722.9 273.7C720.5 271.6 719.4 268.6 718.4 265.6C713.5 251.3 709.4 236.8 706.2 222.1C705.4 225.5 702.5 229.8 699.7 227.8C699.1 227.3 698.6 226.6 698.2 225.9C692.9 217 683.2 211.6 673.4 208.4C663.6 205.2 653.2 203.7 643.5 200.2C638 198.2 632.8 195.6 628 192.5C625.5 196.2 625.2 201 627.3 205C629.5 208.8 634.3 211 638.5 209.7C640.7 209 642.5 207.5 644.6 206.8C646.7 206.1 649.6 206.4 650.6 208.5C651.5 210.5 650.1 212.9 650.8 214.9C651.8 218 656.6 218.3 658.2 221.1C659.4 223.2 658.4 226.1 656.7 227.8C655 229.5 652.6 230.5 650.4 231.7C643.4 235.6 638.5 242.2 632.4 247.4C626.3 252.6 617.7 256.3 610.4 253C612.1 244.2 601.7 237.8 599.8 229.1C599.2 226.2 599.5 223.2 598.6 220.4C597.3 216.3 593.7 213.6 590.7 210.5C583.5 202.9 579.6 192.7 580 182.2C580.2 178.6 580.8 174.9 580 171.4C579.2 167.9 576.3 164.5 572.7 164.6C564.5 165 554.1 165.6 549.8 158.6C548.3 156.1 547.6 152.4 549.8 150.5C551.4 149.1 553.7 149.3 555.8 149.5L574.4 151.3C578.7 151.7 583.4 152.1 587.2 149.8C591 147.5 592.5 141.5 589.1 138.8C586.6 136.8 582.1 137 581.3 133.9C580.7 131.3 583.6 128.4 582 126.2C580.9 124.7 578.4 125.1 576.9 126.2C575.4 127.3 574.3 129.1 572.6 129.9C569.6 131.4 566.1 130 562.9 129C559.7 128 555.4 127.9 553.9 130.9C552.2 134.2 555.4 138.5 553.7 141.9C551.4 146.3 543.7 143.8 540.6 147.6C536.9 151.9 543.1 158.4 541.9 163.9C538.7 165.5 534.9 165.3 531.9 163.3C528.9 161.3 527.3 157.8 527.7 154.2C528 151.7 529.3 149.2 528.4 146.8C527.7 144.9 525.8 143.8 524 142.8L506 132.8C504.3 135.9 506.4 139.8 509.1 142.1C511.8 144.4 515.1 146.2 516.8 149.3C519.1 153.7 517.5 159.2 513.3 161.7C512.8 162.1 512.1 162.2 511.5 162C510.9 161.7 510.5 161.1 510.3 160.4C507.1 152.3 502.3 144.2 494.7 140C487.1 135.8 476.1 136.6 471.1 143.8C469.9 145.5 469.1 147.4 468.1 149.2C462.6 158.8 450.8 163.3 439.7 163C438.6 163.1 437.5 162.8 436.6 162.3C434.8 161.1 434.9 158.5 435.2 156.3L436.4 147.2C436.6 145.4 437 143.3 438.4 142.2C440.4 140.6 443.4 141.6 446 141.6C450 141.4 453.5 138.7 454.7 134.9C455.8 131 454.6 126.9 451.7 124.1C450.5 123 448.9 121.6 449.5 120.1C450 119.3 450.9 118.7 451.8 118.5C456.5 117.1 461.4 116.8 466 115.2C470.6 113.6 475.1 110.3 476.1 105.6C476.4 104.1 476.6 102.4 477.9 101.7C478.6 101.4 479.3 101.3 480 101.3C485.2 100.6 488.9 96 488.6 90.8C490.8 89.3 493.9 90.4 496 92C498.1 93.6 500 95.8 502.6 96.5C507.4 97.8 512.1 93.5 517.1 93.5C519.2 93.5 521.4 94.2 523.4 93.5C525.4 92.8 526.6 90.8 528.2 89.3C529.8 87.8 532.4 86.9 533.9 88.5L532.7 79.5C537.6 80.7 542.9 79.8 547.1 76.9L531.4 71.6C530.9 71.5 530.4 71.2 529.9 70.8C528.8 69.6 529.9 67.7 530.8 66.3C533 63 533.4 57.5 529.7 55.8C527.2 54.7 524.4 56 522 57.4L510.6 63.8C510.2 66 512.9 67.2 514.5 68.7C517.2 71.1 517.5 75.3 515 78C513.8 79.4 512 80.2 510.1 80.2C511.6 82.2 512.2 84.8 511.6 87.2L503.9 87.8C503 88 502.1 87.8 501.4 87.3C500.6 86.6 500.7 85.3 500.5 84.2C500 81.6 497.5 79.7 494.9 79.3C492.3 78.9 489.6 79.4 487 80C485.9 80.4 484.7 80.4 483.6 79.9C483 79.5 482.5 78.9 482.3 78.2C481.2 75.4 482.2 72.2 484 69.9C485.8 67.6 488.3 65.8 490.6 63.9C496 59.2 499.9 53.1 502 46.3C506.2 44.5 510.6 42.1 514.9 40.3C521.4 37 528.8 35.6 536.1 36.2L550.4 36.5C554.6 36.6 559 36.7 562.9 38.3C566.8 39.9 570.3 43.4 570.6 47.7C570.8 48.7 570.4 49.7 569.7 50.3C569.1 50.6 568.5 50.7 567.9 50.7C563.4 50.6 561.7 51.6 557.7 51.7Z" fill="#a75094"/>
<path d="M443.3 96.7C444.4 95.6 444.9 94 444.4 92.5C441.6 91.4 438.5 92 436.3 94C435.4 94.9 434.7 95.8 434.1 96.9C432.2 100 430.5 103.7 431.6 107.1C431.8 107.9 432.3 108.5 432.9 108.9C433.4 109.1 433.9 109.2 434.4 109.1C436.5 109.1 438.6 109 440.6 108.7C441.9 108.5 443.3 108.2 443.8 107C444.4 105.5 442.9 103.7 443.3 102.1C443.6 101.4 444.1 100.7 444.6 100.2C445.2 99.7 445.5 98.9 445.4 98.1C445.2 97.3 444.1 96.9 443.6 97.6" fill="#a75094"/>
<path d="M454.1 82.7C452.3 82.3 450.4 82.2 448.5 82.3C448.1 82.3 447.7 82.4 447.3 82.6C446.9 82.9 446.7 83.2 446.6 83.7C445.8 86.3 447.1 89.2 449.7 90.2C450.4 90.4 451 90.6 451.6 91C453.2 92.2 452.2 94.8 452.5 96.8C452.8 99 455 100.9 454.6 103.1C454.3 104.9 452.4 106.2 452.7 108C453 109.8 455.4 110.4 457.2 110.5C458.3 110.7 459.4 110.6 460.4 110.1C461.4 109.4 462.1 108.4 462.4 107.2C463.2 104.9 463.5 102.5 463.3 100.1C463.3 99 463 97.9 462.5 97C461.9 96.2 461.3 95.5 460.6 94.9C457.1 90.8 460.9 84.7 454.1 82.7Z" fill="#a75094"/>
<path opacity="0.8" d="M923.2 407.8C923.2 407.8 650 251 532.4 280.7C532.4 280.7 283.1 307.5 254.2 366.5C254.2 366.5 175 118.9 146.1 110.6" stroke="#6C63FF" stroke-width="2" stroke-miterlimit="10"/>
<path opacity="0.8" d="M254.2 366.5C300 244.4 712.7 109 712.7 109C654.1 123.9 532.4 280.7 532.4 280.7C532.4 280.7 274.9 93.3 146.1 110.7C146.1 110.7 713.1 129.3 923.2 407.8" stroke="#6C63FF" stroke-width="2" stroke-miterlimit="10"/>
<path d="M146.1 122.6C152.727 122.6 158.1 117.227 158.1 110.6C158.1 103.973 152.727 98.6 146.1 98.6C139.473 98.6 134.1 103.973 134.1 110.6C134.1 117.227 139.473 122.6 146.1 122.6Z" fill="#3F425B"/>
<path d="M254.2 378.5C260.827 378.5 266.2 373.127 266.2 366.5C266.2 359.873 260.827 354.5 254.2 354.5C247.573 354.5 242.2 359.873 242.2 366.5C242.2 373.127 247.573 378.5 254.2 378.5Z" fill="#3F425B"/>
<path d="M712.7 121C719.327 121 724.7 115.627 724.7 109C724.7 102.373 719.327 97 712.7 97C706.073 97 700.7 102.373 700.7 109C700.7 115.627 706.073 121 712.7 121Z" fill="#3F425B"/>
<path d="M923.2 419.8C929.827 419.8 935.2 414.427 935.2 407.8C935.2 401.173 929.827 395.8 923.2 395.8C916.573 395.8 911.2 401.173 911.2 407.8C911.2 414.427 916.573 419.8 923.2 419.8Z" fill="#3F425B"/>
<path d="M532.4 292.7C539.027 292.7 544.4 287.327 544.4 280.7C544.4 274.073 539.027 268.7 532.4 268.7C525.773 268.7 520.4 274.073 520.4 280.7C520.4 287.327 525.773 292.7 532.4 292.7Z" fill="#3F425B"/>
</svg>
